PathFileType	4	(X/Y/Z)	OpenSim_Sub05_CSStiffKnee_Accel.trc
DataRate	CameraRate	NumFrames	NumMarkers	Units	OrigDataRate	OrigDataStartFrame	OrigNumFrames
100	100	28	8	m	100	1	11248
Frame#	Time	torso_imu_offset_imu	pelvis_imu_offset_imu	tibia_r_imu_offset_imu	femur_r_imu_offset_imu	tibia_l_imu_offset_imu	femur_l_imu_offset_imu	toes_r_imu_offset_imu	toes_l_imu_offset_imu
				X1	Y1	Z1	X2	Y2	Z2	X3	Y3	Z3	X4	Y4	Z4	X5	Y5	Z5	X6	Y6	Z6	X7	Y7	Z7	X8		Y8	Z8	

1	0	9.01915438	-2.73392097	-0.05090271	8.44081244	0.57261486	5.34071931	9.63036448	1.86349528	0.43084709	9.06415299	-3.15275586	3.49729329	9.26736711	-2.67111502	1.99890542	9.45852440	-1.21935422	2.39753915	5.66836590	-1.35299150	8.14441041	6.53039971	1.75758912	9.84790938
2	0.01000000	9.05406657	-2.73038398	-0.02386717	8.46384821	0.56875110	5.34345573	9.68184131	1.96466336	0.45984907	9.13336383	-3.21248046	3.39507145	9.22801219	-2.56404727	1.95609415	9.42456007	-1.18916974	2.39994335	5.63357606	-1.35349222	8.15464492	6.53093942	1.81738270	9.81848968
3	0.02000000	9.04678458	-2.72528474	-0.03582699	8.48596858	0.57026009	5.38352276	9.80308317	2.03203227	0.44593513	9.27656471	-3.19502216	3.45196164	9.24952875	-2.50616091	1.94082023	9.40637681	-1.20787808	2.40037672	5.65956737	-1.34509036	8.11839755	6.51527147	1.83155921	9.81344503
4	0.03000000	8.99630122	-2.67918256	-0.05024500	8.52071297	0.58277115	5.39121009	9.75380853	2.03047920	0.43971565	9.30018808	-3.19497091	3.49627172	9.23744895	-2.59856798	1.90094442	9.43664332	-1.22295531	2.40498728	5.68041910	-1.36379145	8.12403615	6.51961319	1.83554021	9.85977245
5	0.04000000	8.96346303	-2.63303114	-0.01501277	8.55916703	0.55863517	5.39736789	9.65014622	1.89372445	0.42721528	9.25368145	-3.18505233	3.53820360	9.22288219	-2.70652705	1.89566682	9.50103367	-1.29179469	2.41994454	5.67731500	-1.38951872	8.12447986	6.54486175	1.84002645	9.83850440
6	0.05000000	8.95148740	-2.62243975	-0.06258632	8.56207852	0.47387190	5.39475224	9.70450035	1.85791839	0.44676588	9.24042523	-3.23446051	3.59634263	9.26651939	-2.78984958	1.92966729	9.55138299	-1.37180580	2.44378105	5.68063091	-1.36452567	8.10632078	6.51994879	1.81206738	9.81177031
7	0.06000000	8.92621086	-2.65699873	-0.06112747	8.53497326	0.43488573	5.37852817	9.73849863	1.89445112	0.41904784	9.18372550	-3.26177925	3.60339650	9.24631698	-2.75070124	1.94514752	9.54119899	-1.41012811	2.43704715	5.65623049	-1.34236446	8.12307315	6.52167695	1.78488552	9.87411085
8	0.07000000	8.98764841	-2.68599097	-0.03522330	8.46424306	0.42334357	5.40525859	9.68592462	1.75154101	0.46426550	9.09968390	-3.27815086	3.52991901	9.26559133	-2.65434231	1.96281750	9.49454106	-1.40256590	2.42841061	5.64200276	-1.37973137	8.15179398	6.52892964	1.80015440	9.84389893
9	0.08000000	9.01354024	-2.71012478	0.01869791	8.43048275	0.43775649	5.39252759	9.69855125	1.65165582	0.42890768	9.06961428	-3.26090157	3.47759096	9.29240210	-2.60900676	1.99274786	9.48203941	-1.39439678	2.39900205	5.63038211	-1.36392418	8.14838218	6.49942749	1.81172752	9.88452658
10	0.09000000	9.00897186	-2.79485041	0.05473603	8.43420830	0.44986547	5.37593582	9.76396777	1.78825019	0.38077318	9.09133396	-3.19754461	3.41027853	9.24218404	-2.53332704	2.00954842	9.46767591	-1.42580261	2.40781856	5.63840893	-1.35186952	8.13888282	6.50129117	1.79176266	9.88282965
11	0.10000000	9.03036394	-2.87085157	0.05407048	8.46123392	0.45430512	5.38736240	9.75046257	1.95517853	0.47254811	9.17904561	-3.10511798	3.37629217	9.26108361	-2.56271108	2.05411507	9.46759269	-1.46738654	2.42296120	5.66694194	-1.35912374	8.11021805	6.49706971	1.75912295	9.84757846
12	0.11000000	9.02001426	-2.82138519	0.03396019	8.46796438	0.52561843	5.39653857	9.65859571	2.04315868	0.40601801	9.20760747	-3.03217196	3.45761317	9.29732912	-2.77667365	2.07181191	9.48831007	-1.51381912	2.41894276	5.70417683	-1.36592126	8.08647297	6.50879447	1.71353478	9.89116427
13	0.12000000	9.00237464	-2.74112141	-0.01848237	8.51588905	0.52732215	5.36954869	9.52612982	2.11114364	0.37829836	9.16939238	-3.09962995	3.53325879	9.28534989	-2.90133708	2.02071927	9.52395277	-1.52045084	2.43533913	5.74013825	-1.40379084	8.05513807	6.54563490	1.70484194	9.85497707
14	0.13000000	9.00799719	-2.69032753	-0.07267423	8.58635794	0.47990907	5.34013441	9.55545762	2.07696753	0.41019755	9.15780387	-3.25227551	3.61104019	9.23438082	-2.85529892	1.99507563	9.56369524	-1.50808025	2.47443359	5.71727905	-1.35682913	8.05390001	6.54243031	1.73151658	9.85866595
15	0.14000000	9.01491624	-2.66774560	-0.11994660	8.59526908	0.45037942	5.33612792	9.66211546	1.96890661	0.44597006	9.08332578	-3.37313339	3.59741271	9.18318932	-2.76174451	1.96683458	9.55723290	-1.38674467	2.49228712	5.64852579	-1.32558251	8.11603401	6.54283575	1.79622960	9.84680576
16	0.15000000	8.98964072	-2.65011106	-0.09649186	8.62343911	0.41770236	5.34724492	9.80427578	1.74488102	0.53927447	9.07463789	-3.45693617	3.52906323	9.19215477	-2.63790504	1.91724744	9.47442418	-1.33629609	2.46005918	5.62555415	-1.35386744	8.16924344	6.52379269	1.83424026	9.81077613
17	0.16000000	9.02887464	-2.61931454	-0.02404497	8.61028798	0.41537490	5.36658691	9.86975666	1.69174419	0.50528057	9.23252253	-3.50615267	3.53677962	9.25609221	-2.56626096	1.88587728	9.45421690	-1.37092324	2.39797978	5.62467874	-1.34657885	8.17854359	6.50113211	1.85808287	9.87048098
18	0.17000000	9.11168210	-2.67136728	0.04829599	8.58315971	0.43837441	5.38036908	9.75008506	1.89201122	0.48863712	9.35361037	-3.38634664	3.46852753	9.28671989	-2.66592713	1.92028268	9.48989259	-1.39280559	2.33289458	5.58195415	-1.30916905	8.17270046	6.48602486	1.82640028	9.84132920
19	0.18000000	9.11094072	-2.71504123	0.10225164	8.57630968	0.48503959	5.41140338	9.68268433	2.06423694	0.43295606	9.33780012	-3.13424291	3.40301175	9.30081822	-2.82403164	1.91900012	9.47706424	-1.47354514	2.33684639	5.65847741	-1.38731619	8.11987732	6.48308109	1.80709139	9.83588823
20	0.19000000	9.06277076	-2.71582093	0.14513307	8.57312845	0.54638047	5.45107663	9.69543275	2.19740466	0.35777813	9.30413140	-2.92111785	3.48079185	9.34170559	-2.89094295	1.95789683	9.53623309	-1.54552297	2.30342809	5.72196019	-1.44432967	8.01811264	6.48450318	1.82194766	9.88865965
21	0.20000000	9.00247973	-2.74423980	0.03846071	8.58085565	0.57124291	5.42120321	9.61605541	2.19597116	0.44800453	9.21474014	-2.84563943	3.52597324	9.30470193	-2.88173233	1.94465054	9.62585265	-1.56875486	2.29096363	5.71531107	-1.35802787	8.04334289	6.50389796	1.80712548	9.84377456
22	0.21000000	8.98587130	-2.75927850	0.05997797	8.57333019	0.53980814	5.36431889	9.54914060	2.03174596	0.58384148	9.11616492	-2.95769579	3.59466521	9.26256656	-2.79685335	1.91213138	9.64998906	-1.50551621	2.34101266	5.69977591	-1.30802283	8.06405757	6.51466399	1.81302716	9.86344299
23	0.22000000	9.00279467	-2.77398706	-0.03359445	8.58659870	0.49789991	5.35672372	9.61943057	1.87231124	0.62008916	9.13068082	-3.19274354	3.67186643	9.27777947	-2.73045603	1.96840507	9.58553860	-1.36936168	2.41053798	5.62988204	-1.31286891	8.13430935	6.50157195	1.84509312	9.90535412
24	0.23000000	9.03044226	-2.82400100	-0.06410318	8.57563500	0.45698674	5.35871084	9.76376362	1.70561319	0.57917639	9.16732392	-3.39384506	3.62481743	9.24858131	-2.61680518	2.00090321	9.48157604	-1.18708769	2.45237778	5.61705855	-1.29097739	8.19606465	6.51413285	1.84410362	9.87491102
25	0.24000000	9.04530692	-2.78018144	0.03990417	8.50797916	0.46282603	5.35384516	9.88229184	1.74290224	0.54558378	9.26159223	-3.44359960	3.51409384	9.26197528	-2.47447752	1.99905423	9.41812287	-1.11376532	2.46135578	5.61941389	-1.31867427	8.16678216	6.48947667	1.82444691	9.87507017
26	0.25000000	9.01751932	-2.68376900	-0.09855986	8.46305948	0.48260791	5.38578351	9.80834015	2.05783961	0.52796085	9.38707866	-3.34935304	3.48299635	9.26592195	-2.50328361	1.97714862	9.42316274	-1.16002642	2.43181571	5.63220128	-1.32494289	8.15308021	6.49712459	1.81078235	9.87941730
27	0.26000000	8.92651830	-2.63644770	0.08719016	8.49062894	0.52789671	5.40424118	9.60208343	2.08029359	0.45851280	9.31109052	-3.19275550	3.49914752	9.21606231	-2.62248316	1.98958216	9.46760066	-1.26811639	2.44021299	5.64237449	-1.32685230	8.15340587	6.54462060	1.76336269	9.87054627
28	0.27000000	8.88141673	-2.60906571	0.24525808	8.49015091	0.56234489	5.39509491	9.67044014	1.85183130	0.34332656	9.18594851	-2.98158259	3.46152020	9.20046230	-2.67755427	2.04564097	9.44791175	-1.39300529	2.44002846	5.71813150	-1.42423853	8.06031429	6.54283339	1.74343551	9.84091424
